<?xml version="1.0" encoding="utf-8"?>
<!-- Generator: Adobe Illustrator 23.1.1, SVG Export Plug-In . SVG Version: 6.00 Build 0)  -->
<svg version="1.1" id="レイヤー_1" xmlns="http://www.w3.org/2000/svg" xmlns:xlink="http://www.w3.org/1999/xlink" x="0px"
	 y="0px" viewBox="0 0 120 46" style="enable-background:new 0 0 120 46;" xml:space="preserve">
<style type="text/css">
	.st0{fill:#FFFFFF;}
</style>
<g>
	<path class="st0" d="M42.44,13.6v18.8c0,0.33-0.27,0.61-0.61,0.61h-5.59c-0.33,0-0.61-0.27-0.61-0.61V13.6
		c0-0.33,0.27-0.61,0.61-0.61h5.59C42.17,12.99,42.44,13.26,42.44,13.6z"/>
	<path class="st0" d="M63.4,1.71v42.59c0,0.33-0.27,0.61-0.61,0.61h-5.6c-0.33,0-0.61-0.27-0.61-0.61V1.71
		c0-0.33,0.27-0.61,0.61-0.61h5.6C63.13,1.1,63.4,1.37,63.4,1.71z"/>
	<path class="st0" d="M84.36,13.6v18.8c0,0.33-0.27,0.61-0.61,0.61h-5.59c-0.33,0-0.61-0.27-0.61-0.61V13.6
		c0-0.33,0.27-0.61,0.61-0.61h5.59C84.09,12.99,84.36,13.26,84.36,13.6z"/>
	<g>
		<path class="st0" d="M17.54,13.41c-0.33,0-0.61,0.27-0.61,0.61v0.74c-1.88-1.29-4.22-1.97-6.72-1.71
			c-4.62,0.48-8.38,4.21-8.89,8.82C0.67,27.89,5.39,33,11.28,33c2.1,0,4.05-0.65,5.66-1.76v1.16c0,0.33,0.27,0.61,0.61,0.61h3.33
			c0.33,0,0.61-0.27,0.61-0.61V14.02c0-0.33-0.27-0.61-0.61-0.61H17.54z M11.28,28.44c-3,0-5.44-2.44-5.44-5.44s2.44-5.44,5.44-5.44
			s5.44,2.44,5.44,5.44S14.28,28.44,11.28,28.44z"/>
	</g>
	<g>
		<path class="st0" d="M114.79,13.41c-0.33,0-0.61,0.27-0.61,0.61v0.74c-1.88-1.29-4.22-1.97-6.72-1.71
			c-4.62,0.48-8.38,4.21-8.89,8.82C97.91,27.89,102.63,33,108.52,33c2.1,0,4.05-0.65,5.66-1.76v1.16c0,0.33,0.27,0.61,0.61,0.61
			h3.33c0.33,0,0.61-0.27,0.61-0.61V14.02c0-0.33-0.27-0.61-0.61-0.61H114.79z M108.52,28.44c-3,0-5.44-2.44-5.44-5.44
			s2.44-5.44,5.44-5.44c3,0,5.44,2.44,5.44,5.44S111.52,28.44,108.52,28.44z"/>
	</g>
</g>
</svg>
