<svg xmlns="http://www.w3.org/2000/svg" viewBox="0 0 209.5 79.71"><defs><style>.cls-1{fill:#fff;}</style></defs><g id="レイヤー_2" data-name="レイヤー 2"><g id="layout"><path class="cls-1" d="M160,3.18H176.7a28.76,28.76,0,0,1,7.75,1,19.82,19.82,0,0,1,6.29,2.92A14.18,14.18,0,0,1,195,11.82a13.22,13.22,0,0,1,1.54,6.42,12.67,12.67,0,0,1-1.5,6.29,13.26,13.26,0,0,1-3.94,4.41,22,22,0,0,1-5.31,2.66,34.8,34.8,0,0,1-7,1.67,56.34,56.34,0,0,1-9.85.46V55.94H160Zm8.87,26.38c1.22,0,7.8.07,10.63-.62a11.43,11.43,0,0,0,4.63-2.41,9.69,9.69,0,0,0,2.12-3.47,12.85,12.85,0,0,0,.71-4.28,12.46,12.46,0,0,0-.91-4.84,10.77,10.77,0,0,0-2.52-3.68,11.31,11.31,0,0,0-3.77-2.34,12.82,12.82,0,0,0-4.61-.82h-6.28Z"/><polygon class="cls-1" points="57.11 56.09 62.36 56.09 83.89 33.33 103.65 56.09 115.94 56.09 90.3 26.55 112.49 3.09 107.24 3.09 87.78 23.66 69.92 3.09 57.63 3.09 81.38 30.43 57.11 56.09"/><path class="cls-1" d="M46.67,56.09H57.1L28.28,0,0,56.09H4.26L12.9,38.92H37.84ZM14.62,35.51l10.63-21.1,10.84,21.1Z"/><rect class="cls-1" x="131.45" y="3.18" width="8.87" height="39.63"/><polygon class="cls-1" points="121.79 69.89 121.79 79.7 157.62 79.7 167.44 69.89 121.79 69.89"/><polygon class="cls-1" points="209.5 79.71 209.5 69.89 173.66 69.89 163.85 79.71 209.5 79.71"/></g></g></svg>