<?xml version="1.0" encoding="UTF-8"?><svg xmlns="http://www.w3.org/2000/svg" viewBox="0 0 326.53 56"><defs><style>.d{fill:#fff;}</style></defs><g id="a"/><g id="b"><g id="c"><g><g><path class="d" d="M52.64,15.98v24.04c0,.43-.35,.77-.77,.77h-7.15c-.43,0-.77-.35-.77-.77V15.98c0-.43,.35-.77,.77-.77h7.15c.43,0,.77,.35,.77,.77Z"/><rect class="d" x="70.73" width="8.7" height="56" rx=".77" ry=".77"/><path class="d" d="M106.23,15.98v24.04c0,.43-.35,.77-.77,.77h-7.15c-.43,0-.77-.35-.77-.77V15.98c0-.43,.35-.77,.77-.77h7.15c.43,0,.77,.35,.77,.77Z"/><path class="d" d="M20.8,15.75c-.43,0-.77,.35-.77,.77v.94c-2.4-1.65-5.39-2.52-8.59-2.18C5.54,15.89,.73,20.65,.08,26.55c-.85,7.7,5.18,14.23,12.71,14.23,2.69,0,5.18-.84,7.24-2.25v1.49c0,.43,.35,.77,.77,.77h4.26c.43,0,.77-.35,.77-.77V16.52c0-.43-.35-.77-.77-.77h-4.26Zm-8.01,19.21c-3.84,0-6.96-3.12-6.96-6.96s3.12-6.96,6.96-6.96,6.96,3.12,6.96,6.96-3.12,6.96-6.96,6.96Z"/><path class="d" d="M145.12,15.75c-.43,0-.77,.35-.77,.77v.94c-2.4-1.65-5.39-2.52-8.59-2.18-5.9,.61-10.71,5.38-11.36,11.28-.85,7.7,5.18,14.23,12.71,14.23,2.69,0,5.18-.84,7.24-2.25v1.49c0,.43,.35,.77,.77,.77h4.26c.43,0,.77-.35,.77-.77V16.52c0-.43-.35-.77-.77-.77h-4.26Zm-8.01,19.21c-3.84,0-6.96-3.12-6.96-6.96s3.12-6.96,6.96-6.96,6.96,3.12,6.96,6.96-3.12,6.96-6.96,6.96Z"/></g><g><path class="d" d="M261.57,19.54h-1.2v7.59h1.36c3.34,0,5.01-1.29,5.01-3.86s-1.72-3.73-5.17-3.73Z"/><polygon class="d" points="217.31 31.02 224.63 31.02 221.06 22.82 217.31 31.02"/><path class="d" d="M242.39,19.54h-1.2v7.59h1.36c3.34,0,5.01-1.29,5.01-3.86s-1.72-3.73-5.17-3.73Z"/><path class="d" d="M322.68,.34H179.97c-2.13,0-3.85,1.72-3.85,3.85V51.81c0,2.13,1.72,3.85,3.85,3.85h142.71c2.13,0,3.85-1.72,3.85-3.85V4.19c0-2.13-1.72-3.85-3.85-3.85Zm-94.04,39.95l-2.53-5.85h-10.32l-2.68,5.85h-3.92l11.92-25.61,11.5,25.61h-3.98Zm20.21-11.72c-1.48,1.29-3.47,1.94-5.98,1.94h-1.69v9.78h-3.64V16.19h4.12c2.02,0,3.54,.14,4.57,.42,1.04,.28,1.96,.81,2.75,1.59,1.38,1.35,2.08,3.06,2.08,5.12,0,2.2-.74,3.95-2.22,5.24Zm19.18,0c-1.48,1.29-3.47,1.94-5.98,1.94h-1.69v9.78h-3.64V16.19h4.12c2.02,0,3.54,.14,4.57,.42,1.04,.28,1.96,.81,2.75,1.59,1.38,1.35,2.08,3.06,2.08,5.12,0,2.2-.74,3.95-2.22,5.24Zm19.91,9.97c-1.49,1.46-3.33,2.18-5.54,2.18-2.09,0-3.82-.62-5.18-1.86-1.34-1.24-2.18-2.98-2.51-5.23l3.68-.81c.17,1.42,.46,2.39,.87,2.93,.75,1.04,1.84,1.56,3.28,1.56,1.13,0,2.08-.38,2.83-1.14,.75-.76,1.12-1.72,1.12-2.89,0-.47-.07-.9-.2-1.29-.13-.39-.33-.75-.61-1.08-.28-.33-.63-.63-1.07-.92s-.96-.56-1.56-.82l-2.33-.97c-3.3-1.39-4.95-3.43-4.95-6.12,0-1.81,.69-3.32,2.08-4.54,1.38-1.23,3.11-1.84,5.17-1.84,2.78,0,4.95,1.35,6.51,4.06l-2.95,1.75c-.55-.96-1.08-1.58-1.58-1.87-.52-.33-1.19-.5-2.01-.5-1.01,0-1.85,.29-2.51,.86-.67,.56-1,1.27-1,2.12,0,1.17,.87,2.12,2.62,2.84l2.4,.98c1.96,.79,3.39,1.76,4.29,2.9,.9,1.14,1.36,2.54,1.36,4.19,0,2.22-.74,4.05-2.22,5.49Z"/></g></g></g></g></svg>