<?xml version="1.0" encoding="UTF-8"?><svg xmlns="http://www.w3.org/2000/svg" viewBox="0 0 326.53 56"><defs><style>.d{fill:#fff;}</style></defs><g id="a"/><g id="b"><g id="c"><g><g><path class="d" d="M52.64,15.98v24.04c0,.43-.35,.77-.77,.77h-7.15c-.43,0-.77-.35-.77-.77V15.98c0-.43,.35-.77,.77-.77h7.15c.43,0,.77,.35,.77,.77Z"/><rect class="d" x="70.73" width="8.7" height="56" rx=".77" ry=".77"/><path class="d" d="M106.23,15.98v24.04c0,.43-.35,.77-.77,.77h-7.15c-.43,0-.77-.35-.77-.77V15.98c0-.43,.35-.77,.77-.77h7.15c.43,0,.77,.35,.77,.77Z"/><path class="d" d="M20.8,15.75c-.43,0-.77,.35-.77,.77v.94c-2.4-1.65-5.39-2.52-8.59-2.18C5.54,15.89,.73,20.65,.08,26.55c-.85,7.7,5.18,14.23,12.71,14.23,2.69,0,5.18-.84,7.24-2.25v1.49c0,.43,.35,.77,.77,.77h4.26c.43,0,.77-.35,.77-.77V16.52c0-.43-.35-.77-.77-.77h-4.26Zm-8.01,19.21c-3.84,0-6.96-3.12-6.96-6.96s3.12-6.96,6.96-6.96,6.96,3.12,6.96,6.96-3.12,6.96-6.96,6.96Z"/><path class="d" d="M145.12,15.75c-.43,0-.77,.35-.77,.77v.94c-2.4-1.65-5.39-2.52-8.59-2.18-5.9,.61-10.71,5.38-11.36,11.28-.85,7.7,5.18,14.23,12.71,14.23,2.69,0,5.18-.84,7.24-2.25v1.49c0,.43,.35,.77,.77,.77h4.26c.43,0,.77-.35,.77-.77V16.52c0-.43-.35-.77-.77-.77h-4.26Zm-8.01,19.21c-3.84,0-6.96-3.12-6.96-6.96s3.12-6.96,6.96-6.96,6.96,3.12,6.96,6.96-3.12,6.96-6.96,6.96Z"/></g><g><path class="d" d="M245.65,19.61h-1.64v17.26h1.64c1.63,0,2.99-.17,4.07-.52,1.08-.36,2.06-.94,2.93-1.73,1.79-1.63,2.68-3.76,2.68-6.38s-.88-4.79-2.65-6.43c-1.59-1.47-3.94-2.2-7.04-2.2Z"/><path class="d" d="M322.68,.34H179.97c-2.13,0-3.85,1.72-3.85,3.85V51.81c0,2.13,1.72,3.85,3.85,3.85h142.71c2.13,0,3.85-1.72,3.85-3.85V4.19c0-2.13-1.72-3.85-3.85-3.85Zm-90.82,38.2c-1.49,1.46-3.33,2.18-5.54,2.18-2.09,0-3.82-.62-5.18-1.86-1.34-1.24-2.18-2.98-2.51-5.23l3.68-.81c.17,1.42,.46,2.39,.87,2.93,.75,1.04,1.84,1.56,3.28,1.56,1.13,0,2.08-.38,2.83-1.14s1.12-1.72,1.12-2.89c0-.47-.07-.9-.2-1.29-.13-.39-.33-.75-.61-1.08-.28-.33-.63-.63-1.07-.92s-.96-.56-1.56-.82l-2.33-.97c-3.3-1.39-4.95-3.43-4.95-6.12,0-1.81,.69-3.32,2.08-4.54,1.38-1.23,3.11-1.84,5.17-1.84,2.78,0,4.95,1.35,6.51,4.06l-2.95,1.75c-.55-.96-1.08-1.58-1.58-1.87-.52-.33-1.19-.5-2.01-.5-1.01,0-1.85,.29-2.51,.86-.67,.56-1,1.27-1,2.12,0,1.18,.87,2.12,2.62,2.84l2.4,.98c1.96,.79,3.39,1.76,4.29,2.9,.9,1.14,1.36,2.54,1.36,4.19,0,2.22-.74,4.05-2.22,5.49Zm23.27-1.31c-1.3,1.14-2.66,1.94-4.09,2.39-1.33,.45-3.22,.67-5.67,.67h-4.99V16.19h5.06c2.42,0,4.34,.24,5.74,.72,1.51,.47,2.88,1.26,4.11,2.39,2.49,2.27,3.73,5.25,3.73,8.94s-1.3,6.7-3.89,8.99Zm23.44,3.06l-8.68-10.72-.75,.75v9.97h-3.64V16.19h3.64v9.61l9.38-9.61h4.85l-10.89,10.91,10.96,13.19h-4.87Z"/></g></g></g></g></svg>