<?xml version="1.0" encoding="UTF-8"?><svg xmlns="http://www.w3.org/2000/svg" viewBox="0 0 326.53 56"><defs><style>.d{fill:#fff;}</style></defs><g id="a"/><g id="b"><g id="c"><g><g><path class="d" d="M52.64,15.98v24.04c0,.43-.35,.77-.77,.77h-7.15c-.43,0-.77-.35-.77-.77V15.98c0-.43,.35-.77,.77-.77h7.15c.43,0,.77,.35,.77,.77Z"/><rect class="d" x="70.73" width="8.7" height="56" rx=".77" ry=".77"/><path class="d" d="M106.23,15.98v24.04c0,.43-.35,.77-.77,.77h-7.15c-.43,0-.77-.35-.77-.77V15.98c0-.43,.35-.77,.77-.77h7.15c.43,0,.77,.35,.77,.77Z"/><path class="d" d="M20.8,15.75c-.43,0-.77,.35-.77,.77v.94c-2.4-1.65-5.39-2.52-8.59-2.18C5.54,15.89,.73,20.65,.08,26.55c-.85,7.7,5.18,14.23,12.71,14.23,2.69,0,5.18-.84,7.24-2.25v1.49c0,.43,.35,.77,.77,.77h4.26c.43,0,.77-.35,.77-.77V16.52c0-.43-.35-.77-.77-.77h-4.26Zm-8.01,19.21c-3.84,0-6.96-3.12-6.96-6.96s3.12-6.96,6.96-6.96,6.96,3.12,6.96,6.96-3.12,6.96-6.96,6.96Z"/><path class="d" d="M145.12,15.75c-.43,0-.77,.35-.77,.77v.94c-2.4-1.65-5.39-2.52-8.59-2.18-5.9,.61-10.71,5.38-11.36,11.28-.85,7.7,5.18,14.23,12.71,14.23,2.69,0,5.18-.84,7.24-2.25v1.49c0,.43,.35,.77,.77,.77h4.26c.43,0,.77-.35,.77-.77V16.52c0-.43-.35-.77-.77-.77h-4.26Zm-8.01,19.21c-3.84,0-6.96-3.12-6.96-6.96s3.12-6.96,6.96-6.96,6.96,3.12,6.96,6.96-3.12,6.96-6.96,6.96Z"/></g><g><polygon class="d" points="228.2 31.02 235.51 31.02 231.94 22.82 228.2 31.02"/><path class="d" d="M213.56,23.31c0-2.47-1.68-3.7-5.03-3.7h-1.29v7.65h1.15c3.44,0,5.17-1.32,5.17-3.95Z"/><path class="d" d="M322.68,.34H179.97c-2.13,0-3.85,1.72-3.85,3.85V51.81c0,2.13,1.72,3.85,3.85,3.85h142.71c2.13,0,3.85-1.72,3.85-3.85V4.19c0-2.13-1.72-3.85-3.85-3.85Zm-122.33,19.27h-5.52v20.68h-3.64V19.61h-5.54v-3.42h14.7v3.42Zm14.42,20.68l-6.88-9.86h-.66v9.86h-3.64V16.19h4.26c3.18,0,5.48,.6,6.9,1.8,1.56,1.33,2.34,3.09,2.34,5.27,0,1.71-.49,3.17-1.47,4.4-.98,1.23-2.27,2.01-3.87,2.36l7.46,10.27h-4.45Zm24.75,0l-2.53-5.85h-10.32l-2.68,5.85h-3.92l11.92-25.61,11.5,25.61h-3.98Zm10.63,0h-3.64V16.19h3.64v24.1Zm27,1.47l-17.57-18.34v16.87h-3.64V14.55l17.57,18.38V16.19h3.64v25.56Zm19.07-22.15h-9.66v5.79h9.38v3.42h-9.38v8.05h9.66v3.42h-13.3V16.19h13.3v3.42Zm15.95,20.68l-6.88-9.86h-.66v9.86h-3.64V16.19h4.26c3.18,0,5.48,.6,6.9,1.8,1.56,1.33,2.34,3.09,2.34,5.27,0,1.71-.49,3.17-1.47,4.4-.98,1.23-2.27,2.01-3.87,2.36l7.46,10.27h-4.45Z"/><path class="d" d="M310.96,23.31c0-2.47-1.68-3.7-5.03-3.7h-1.29v7.65h1.15c3.44,0,5.17-1.32,5.17-3.95Z"/></g></g></g></g></svg>