<svg xmlns="http://www.w3.org/2000/svg" viewBox="0 0 145.77 25"><defs><style>.cls-1{fill:#fff;}.cls-2{fill:#4f4e58;}</style></defs><g id="レイヤー_2" data-name="レイヤー 2"><g id="scrl_subheader"><path class="cls-1" d="M23.5,7.13V17.87a.35.35,0,0,1-.35.34H20a.35.35,0,0,1-.35-.34V7.13A.35.35,0,0,1,20,6.79h3.19A.35.35,0,0,1,23.5,7.13Z"/><rect class="cls-1" x="31.58" width="3.89" height="25" rx="0.35"/><path class="cls-1" d="M47.42,7.13V17.87a.34.34,0,0,1-.34.34h-3.2a.34.34,0,0,1-.34-.34V7.13a.34.34,0,0,1,.34-.34h3.2A.34.34,0,0,1,47.42,7.13Z"/><path class="cls-1" d="M9.29,7a.35.35,0,0,0-.35.34v.42A5.71,5.71,0,1,0,5.71,18.21a5.63,5.63,0,0,0,3.23-1v.67a.35.35,0,0,0,.35.34h1.9a.35.35,0,0,0,.35-.34V7.37A.35.35,0,0,0,11.19,7ZM5.71,15.61A3.11,3.11,0,1,1,8.82,12.5,3.12,3.12,0,0,1,5.71,15.61Z"/><path class="cls-1" d="M64.79,7a.35.35,0,0,0-.35.34v.42a5.71,5.71,0,1,0-3.23,10.42,5.63,5.63,0,0,0,3.23-1v.67a.35.35,0,0,0,.35.34h1.9a.35.35,0,0,0,.35-.34V7.37A.35.35,0,0,0,66.69,7Zm-3.58,8.58a3.11,3.11,0,1,1,3.11-3.11A3.12,3.12,0,0,1,61.21,15.61Z"/><rect class="cls-1" x="78.62" y="0.15" width="67.15" height="24.69" rx="3.01"/><path class="cls-2" d="M83.2,18,85.46,6.42l3.69,8.36L93,6.42,95,18H93.35l-1-6.5-3.18,7-3.1-7L84.88,18Z"/><path class="cls-2" d="M96.76,12.56a5.24,5.24,0,0,1,1.66-3.9,5.49,5.49,0,0,1,4-1.63A5.62,5.62,0,0,1,108,12.62a5.28,5.28,0,0,1-1.66,3.94,5.69,5.69,0,0,1-7.76.18A5.27,5.27,0,0,1,96.76,12.56Zm1.63,0a4,4,0,0,0,6.81,2.91,3.94,3.94,0,0,0,1.16-2.88,3.94,3.94,0,0,0-1.15-2.89,3.78,3.78,0,0,0-2.82-1.17,3.84,3.84,0,0,0-2.84,1.17A3.9,3.9,0,0,0,98.39,12.58Z"/><path class="cls-2" d="M110,18V7.23h2.26a8.28,8.28,0,0,1,2.56.32,4.71,4.71,0,0,1,1.84,1.07,5.13,5.13,0,0,1,1.66,4,5.23,5.23,0,0,1-3.56,5.08,8.29,8.29,0,0,1-2.53.3Zm1.63-1.53h.73a6.25,6.25,0,0,0,1.82-.23,3.66,3.66,0,0,0,2.5-3.62,3.73,3.73,0,0,0-1.18-2.87,4.46,4.46,0,0,0-3.14-1h-.73Z"/><path class="cls-2" d="M126.34,8.75H122v2.59h4.18v1.53H122v3.59h4.31V18H120.4V7.23h5.94Z"/><path class="cls-2" d="M130.09,7.23v9.23h3.17V18h-4.79V7.23Z"/><path class="cls-2" d="M141.16,8.83l-1.31.78a2.19,2.19,0,0,0-.71-.83,1.61,1.61,0,0,0-.89-.23,1.65,1.65,0,0,0-1.13.39,1.19,1.19,0,0,0-.44.94c0,.53.39.95,1.17,1.27l1.07.44a4.61,4.61,0,0,1,1.92,1.29,3,3,0,0,1,.6,1.87,3.31,3.31,0,0,1-1,2.46,3.37,3.37,0,0,1-2.47,1,3.28,3.28,0,0,1-2.31-.83A3.76,3.76,0,0,1,134.55,15l1.64-.36a2.74,2.74,0,0,0,.39,1.31,1.85,1.85,0,0,0,2.72.18,1.71,1.71,0,0,0,.51-1.28,1.76,1.76,0,0,0-.09-.58,1.64,1.64,0,0,0-.27-.48,2.2,2.2,0,0,0-.48-.41,4.51,4.51,0,0,0-.7-.37l-1-.43C135.76,12,135,11.07,135,9.87a2.62,2.62,0,0,1,.92-2A3.35,3.35,0,0,1,138.26,7,3.2,3.2,0,0,1,141.16,8.83Z"/></g></g></svg>