<svg xmlns="http://www.w3.org/2000/svg" viewBox="0 0 110 91.1"><defs><style>.cls-1{fill:#fff;}</style></defs><g id="レイヤー_2" data-name="レイヤー 2"><g id="layout"><path class="cls-1" d="M38.56,21.67V39.28a.57.57,0,0,1-.57.56H32.75a.57.57,0,0,1-.57-.56V21.67a.57.57,0,0,1,.57-.57H38A.57.57,0,0,1,38.56,21.67Z"/><rect class="cls-1" x="51.81" width="6.38" height="40.13" rx="0.57"/><path class="cls-1" d="M77.82,21.67V39.28a.57.57,0,0,1-.57.56H72a.57.57,0,0,1-.57-.56V21.67A.57.57,0,0,1,72,21.1h5.24A.57.57,0,0,1,77.82,21.67Z"/><path class="cls-1" d="M15.24,21.49a.57.57,0,0,0-.57.57v.69a9.37,9.37,0,1,0,0,15.44v1.09a.56.56,0,0,0,.57.56h3.12a.57.57,0,0,0,.57-.56V22.06a.58.58,0,0,0-.57-.57ZM9.37,35.57a5.1,5.1,0,1,1,5.1-5.1A5.11,5.11,0,0,1,9.37,35.57Z"/><path class="cls-1" d="M106.31,21.49a.58.58,0,0,0-.57.57v.69a9.37,9.37,0,1,0,0,15.44v1.09a.57.57,0,0,0,.57.56h3.12a.56.56,0,0,0,.57-.56V22.06a.57.57,0,0,0-.57-.57Zm-5.87,14.08a5.1,5.1,0,1,1,5.1-5.1A5.11,5.11,0,0,1,100.44,35.57Z"/><path class="cls-1" d="M38.92,64.4a6.26,6.26,0,0,0-4.64,1.92,6.8,6.8,0,0,0,.07,9.48,6.28,6.28,0,0,0,4.51,1.89,6.35,6.35,0,0,0,4.68-1.92,6.85,6.85,0,0,0,0-9.45A6.22,6.22,0,0,0,38.92,64.4Z"/><path class="cls-1" d="M107.18,50.64H2.82A2.82,2.82,0,0,0,0,53.46V88.28A2.82,2.82,0,0,0,2.82,91.1H107.18A2.82,2.82,0,0,0,110,88.28V53.46A2.82,2.82,0,0,0,107.18,50.64ZM24.12,79.86l-1.7-10.64L17.2,80.67,12.14,69.21l-1.9,10.65H7.49l3.71-19,6.05,13.7,6.27-13.7,3.33,19Zm21.29-2.34a9.31,9.31,0,0,1-12.72.29,9.1,9.1,0,0,1-.26-13.24A9,9,0,0,1,39,61.9a9.22,9.22,0,0,1,9.16,9.17A8.68,8.68,0,0,1,45.41,77.52Zm16.84.1a8.23,8.23,0,0,1-3,1.75,13.8,13.8,0,0,1-4.14.49H51.47V62.23h3.7a13.46,13.46,0,0,1,4.2.53,7.77,7.77,0,0,1,3,1.75,9.1,9.1,0,0,1-.12,13.11ZM78.16,64.73H71.1V69H78v2.5H71.1v5.89h7.06v2.5H68.44V62.23h9.72ZM89.5,79.86H81.66V62.23h2.66V77.36H89.5Zm11.79-1.28a5.59,5.59,0,0,1-4.05,1.6,5.44,5.44,0,0,1-3.79-1.36A6.26,6.26,0,0,1,91.61,75l2.69-.59a4.63,4.63,0,0,0,.64,2.15,2.78,2.78,0,0,0,2.4,1.14,2.74,2.74,0,0,0,2.06-.84,3.07,3.07,0,0,0,.68-3,2.38,2.38,0,0,0-.44-.79,3.5,3.5,0,0,0-.78-.67,7.51,7.51,0,0,0-1.14-.6L96,71q-3.62-1.53-3.61-4.47a4.25,4.25,0,0,1,1.51-3.32,5.51,5.51,0,0,1,3.78-1.35,5.28,5.28,0,0,1,4.76,3l-2.16,1.28a3.61,3.61,0,0,0-1.15-1.37,2.63,2.63,0,0,0-1.47-.37,2.72,2.72,0,0,0-1.84.63,2,2,0,0,0-.73,1.55c0,.86.64,1.55,1.92,2.08l1.76.72a7.52,7.52,0,0,1,3.14,2.12,4.76,4.76,0,0,1,1,3.06A5.4,5.4,0,0,1,101.29,78.58Z"/><path class="cls-1" d="M55.33,64.73h-1.2V77.36h1.2a10,10,0,0,0,3-.38,6,6,0,0,0,4.11-5.93,6.12,6.12,0,0,0-1.94-4.71A7.35,7.35,0,0,0,55.33,64.73Z"/></g></g></svg>