<svg xmlns="http://www.w3.org/2000/svg" viewBox="0 0 145.77 25"><defs><style>.cls-1{fill:#fff;}.cls-2{fill:#f0e33c;}</style></defs><g id="レイヤー_2" data-name="レイヤー 2"><g id="scrl_subheader"><path class="cls-1" d="M23.5,7.13V17.87a.35.35,0,0,1-.35.34H20a.35.35,0,0,1-.35-.34V7.13A.35.35,0,0,1,20,6.79h3.19A.35.35,0,0,1,23.5,7.13Z"/><rect class="cls-1" x="31.58" width="3.89" height="25" rx="0.35"/><path class="cls-1" d="M47.42,7.13V17.87a.34.34,0,0,1-.34.34h-3.2a.34.34,0,0,1-.34-.34V7.13a.34.34,0,0,1,.34-.34h3.2A.34.34,0,0,1,47.42,7.13Z"/><path class="cls-1" d="M9.29,7a.35.35,0,0,0-.35.34v.42A5.71,5.71,0,1,0,5.71,18.21a5.63,5.63,0,0,0,3.23-1v.67a.35.35,0,0,0,.35.34h1.9a.35.35,0,0,0,.35-.34V7.37A.35.35,0,0,0,11.19,7ZM5.71,15.61A3.11,3.11,0,1,1,8.82,12.5,3.12,3.12,0,0,1,5.71,15.61Z"/><path class="cls-1" d="M64.79,7a.35.35,0,0,0-.35.34v.42a5.71,5.71,0,1,0-3.23,10.42,5.63,5.63,0,0,0,3.23-1v.67a.35.35,0,0,0,.35.34h1.9a.35.35,0,0,0,.35-.34V7.37A.35.35,0,0,0,66.69,7Zm-3.58,8.58a3.11,3.11,0,1,1,3.11-3.11A3.12,3.12,0,0,1,61.21,15.61Z"/><rect class="cls-1" x="78.62" y="0.15" width="67.15" height="24.69" rx="3.01"/><path class="cls-2" d="M100.94,15.37h-4.6L95.14,18H93.39L98.71,6.55,103.85,18h-1.78Zm-.66-1.52-1.59-3.66L97,13.85Z"/><path class="cls-2" d="M107.67,13.62V18h-1.62V7.23h1.84a8.05,8.05,0,0,1,2,.19,2.69,2.69,0,0,1,1.23.71,3.07,3.07,0,0,1,.92,2.28,2.93,2.93,0,0,1-1,2.34,3.87,3.87,0,0,1-2.66.87Zm0-1.51h.61c1.49,0,2.24-.57,2.24-1.72s-.77-1.67-2.31-1.67h-.54Z"/><path class="cls-2" d="M116.24,13.62V18h-1.63V7.23h1.84a8.05,8.05,0,0,1,2,.19,2.64,2.64,0,0,1,1.23.71,3,3,0,0,1,.93,2.28,2.93,2.93,0,0,1-1,2.34,3.9,3.9,0,0,1-2.67.87Zm0-1.51h.6c1.49,0,2.24-.57,2.24-1.72s-.77-1.67-2.31-1.67h-.53Z"/><path class="cls-2" d="M129.26,8.83l-1.32.78a2.32,2.32,0,0,0-.7-.84,1.76,1.76,0,0,0-.9-.22,1.67,1.67,0,0,0-1.12.38,1.2,1.2,0,0,0-.45,1c0,.53.39.95,1.17,1.27l1.07.44a4.55,4.55,0,0,1,1.92,1.29,2.94,2.94,0,0,1,.61,1.87,3.27,3.27,0,0,1-1,2.45,3.42,3.42,0,0,1-2.48,1,3.32,3.32,0,0,1-2.31-.83A3.81,3.81,0,0,1,122.64,15l1.64-.37a2.9,2.9,0,0,0,.39,1.31,1.69,1.69,0,0,0,1.47.7,1.71,1.71,0,0,0,1.26-.51,1.78,1.78,0,0,0,.5-1.29,1.7,1.7,0,0,0-.09-.57,1.42,1.42,0,0,0-.27-.48,1.79,1.79,0,0,0-.48-.41,4.87,4.87,0,0,0-.69-.37l-1-.43c-1.48-.62-2.21-1.53-2.21-2.73a2.61,2.61,0,0,1,.92-2A3.35,3.35,0,0,1,126.35,7,3.22,3.22,0,0,1,129.26,8.83Z"/></g></g></svg>