<svg xmlns="http://www.w3.org/2000/svg" viewBox="0 0 110 91.1"><defs><style>.cls-1{fill:#fff;}</style></defs><g id="レイヤー_2" data-name="レイヤー 2"><g id="layout"><path class="cls-1" d="M9.37,39.84a9.3,9.3,0,0,0,5.3-1.65v1.09a.56.56,0,0,0,.57.56h3.12a.57.57,0,0,0,.57-.56V22.06a.58.58,0,0,0-.57-.57H15.24a.57.57,0,0,0-.57.57v.69a9.37,9.37,0,1,0-5.3,17.09Zm0-14.47a5.1,5.1,0,1,1-5.1,5.1A5.11,5.11,0,0,1,9.37,25.37Z"/><polygon class="cls-1" points="30.13 73.08 35.48 73.08 32.87 67.08 30.13 73.08"/><rect class="cls-1" x="71.44" y="21.1" width="6.37" height="18.75" rx="0.57"/><rect class="cls-1" x="32.18" y="21.1" width="6.37" height="18.75" rx="0.57"/><rect class="cls-1" x="51.81" width="6.38" height="40.13" rx="0.57"/><path class="cls-1" d="M48.47,64.69h-.88v5.55h1c2.44,0,3.66-.95,3.66-2.82S51,64.69,48.47,64.69Z"/><path class="cls-1" d="M62.49,64.69h-.88v5.55h1c2.44,0,3.66-.95,3.66-2.82S65,64.69,62.49,64.69Z"/><path class="cls-1" d="M107.18,50.64H2.82A2.82,2.82,0,0,0,0,53.46V88.28A2.82,2.82,0,0,0,2.82,91.1H107.18A2.82,2.82,0,0,0,110,88.28V53.46A2.82,2.82,0,0,0,107.18,50.64ZM38.41,79.86l-1.85-4.28H29l-2,4.28H24.19l8.72-18.73,8.41,18.73Zm14.78-8.57a6.43,6.43,0,0,1-4.37,1.41H47.59v7.16H44.93V62.23h3a13.92,13.92,0,0,1,3.35.31,4.48,4.48,0,0,1,2,1.17,5,5,0,0,1,1.52,3.74A4.86,4.86,0,0,1,53.19,71.29Zm14,0a6.43,6.43,0,0,1-4.37,1.41H61.61v7.16H59V62.23h3a13.82,13.82,0,0,1,3.34.31,4.56,4.56,0,0,1,2,1.17,5,5,0,0,1,1.52,3.74A4.86,4.86,0,0,1,67.22,71.29Zm14.56,7.29a5.59,5.59,0,0,1-4,1.6,5.45,5.45,0,0,1-3.79-1.36A6.31,6.31,0,0,1,72.1,75l2.7-.59a4.65,4.65,0,0,0,.63,2.15,2.78,2.78,0,0,0,2.4,1.14,2.81,2.81,0,0,0,2.07-.83,2.89,2.89,0,0,0,.82-2.12,3.14,3.14,0,0,0-.14-.94,2.6,2.6,0,0,0-.45-.79,3.5,3.5,0,0,0-.78-.67,7.51,7.51,0,0,0-1.14-.6L76.51,71c-2.42-1-3.62-2.51-3.62-4.47a4.26,4.26,0,0,1,1.52-3.32,5.46,5.46,0,0,1,3.77-1.35,5.26,5.26,0,0,1,4.76,3l-2.15,1.28a3.71,3.71,0,0,0-1.16-1.37,2.63,2.63,0,0,0-1.47-.37,2.72,2.72,0,0,0-1.84.63,2,2,0,0,0-.73,1.55c0,.86.64,1.56,1.92,2.08l1.76.72a7.46,7.46,0,0,1,3.14,2.12,4.76,4.76,0,0,1,1,3.06A5.4,5.4,0,0,1,81.78,78.58Z"/><path class="cls-1" d="M109.43,21.49h-3.12a.58.58,0,0,0-.57.57v.69a9.37,9.37,0,1,0,0,15.44v1.09a.57.57,0,0,0,.57.56h3.12a.56.56,0,0,0,.57-.56V22.06A.57.57,0,0,0,109.43,21.49Zm-9,14.08a5.1,5.1,0,1,1,5.1-5.1A5.11,5.11,0,0,1,100.44,35.57Z"/></g></g></svg>