<svg xmlns="http://www.w3.org/2000/svg" viewBox="0 0 110 91.1"><defs><style>.cls-1{fill:#fff;}</style></defs><g id="レイヤー_2" data-name="レイヤー 2"><g id="layout"><polygon class="cls-1" points="38.09 73.08 43.44 73.08 40.82 67.08 38.09 73.08"/><path class="cls-1" d="M27.38,67.44c0-1.8-1.23-2.71-3.68-2.71h-.94v5.6h.84C26.12,70.33,27.38,69.36,27.38,67.44Z"/><path class="cls-1" d="M9.37,39.84a9.3,9.3,0,0,0,5.3-1.65v1.09a.56.56,0,0,0,.57.56h3.12a.57.57,0,0,0,.57-.56V22.06a.58.58,0,0,0-.57-.57H15.24a.57.57,0,0,0-.57.57v.69a9.37,9.37,0,1,0-5.3,17.09Zm0-14.47a5.1,5.1,0,1,1-5.1,5.1A5.11,5.11,0,0,1,9.37,25.37Z"/><rect class="cls-1" x="32.18" y="21.1" width="6.37" height="18.75" rx="0.57"/><rect class="cls-1" x="71.44" y="21.1" width="6.37" height="18.75" rx="0.57"/><path class="cls-1" d="M109.43,21.49h-3.12a.58.58,0,0,0-.57.57v.69a9.37,9.37,0,1,0,0,15.44v1.09a.57.57,0,0,0,.57.56h3.12a.56.56,0,0,0,.57-.56V22.06A.57.57,0,0,0,109.43,21.49Zm-9,14.08a5.1,5.1,0,1,1,5.1-5.1A5.11,5.11,0,0,1,100.44,35.57Z"/><path class="cls-1" d="M107.18,50.64H2.82A2.82,2.82,0,0,0,0,53.46V88.28A2.82,2.82,0,0,0,2.82,91.1H107.18A2.82,2.82,0,0,0,110,88.28V53.46A2.82,2.82,0,0,0,107.18,50.64ZM17.72,64.73h-4V79.86H11V64.73H7v-2.5H17.72ZM28.27,79.86l-5-7.22h-.48v7.22H20.1V62.23h3.11q3.49,0,5.05,1.32A4.81,4.81,0,0,1,30,67.4a5,5,0,0,1-1.07,3.22,4.79,4.79,0,0,1-2.83,1.73l5.45,7.51Zm18.1,0-1.85-4.28H37l-2,4.28H32.15l8.72-18.73,8.41,18.73Zm7.77,0H51.48V62.23h2.66Zm19.75,1.07L61,67.52V79.86H58.38V61L71.23,74.48V62.23h2.66Zm14-16.2H80.77V69h6.86v2.5H80.77v5.89h7.07v2.5H78.11V62.23h9.73ZM99.5,79.86l-5-7.22H94v7.22H91.33V62.23h3.11q3.5,0,5,1.32a4.81,4.81,0,0,1,1.71,3.85,5,5,0,0,1-1.07,3.22,4.79,4.79,0,0,1-2.83,1.73l5.45,7.51Z"/><rect class="cls-1" x="51.81" width="6.38" height="40.13" rx="0.57"/><path class="cls-1" d="M98.61,67.44c0-1.8-1.22-2.71-3.68-2.71H94v5.6h.84C97.35,70.33,98.61,69.36,98.61,67.44Z"/></g></g></svg>