<svg xmlns="http://www.w3.org/2000/svg" viewBox="0 0 174.93 30"><defs><style>.cls-1{fill:#fff;}.cls-2{fill:#9263c9;}</style></defs><g id="レイヤー_2" data-name="レイヤー 2"><g id="scrl_subheader"><path class="cls-1" d="M28.2,8.56V21.44a.41.41,0,0,1-.42.41H24a.41.41,0,0,1-.41-.41V8.56A.41.41,0,0,1,24,8.15h3.83A.41.41,0,0,1,28.2,8.56Z"/><rect class="cls-1" x="37.89" width="4.66" height="30" rx="0.42"/><path class="cls-1" d="M56.91,8.56V21.44a.41.41,0,0,1-.42.41H52.66a.41.41,0,0,1-.41-.41V8.56a.41.41,0,0,1,.41-.41h3.83A.41.41,0,0,1,56.91,8.56Z"/><path class="cls-1" d="M11.14,8.43a.41.41,0,0,0-.41.42v.5a6.85,6.85,0,1,0-3.88,12.5,6.81,6.81,0,0,0,3.88-1.21v.8a.41.41,0,0,0,.41.41h2.29a.41.41,0,0,0,.41-.41V8.85a.41.41,0,0,0-.41-.42ZM6.85,18.73A3.73,3.73,0,1,1,10.58,15,3.74,3.74,0,0,1,6.85,18.73Z"/><path class="cls-1" d="M77.74,8.43a.42.42,0,0,0-.41.42v.5a6.85,6.85,0,1,0-3.88,12.5,6.81,6.81,0,0,0,3.88-1.21v.8a.41.41,0,0,0,.41.41H80a.41.41,0,0,0,.41-.41V8.85A.41.41,0,0,0,80,8.43Zm-4.29,10.3A3.73,3.73,0,1,1,77.18,15,3.74,3.74,0,0,1,73.45,18.73Z"/><rect class="cls-1" x="94.35" y="0.18" width="80.58" height="29.63" rx="3.01"/><path class="cls-2" d="M104.37,10.5V21.58h-2V10.5h-3V8.67h7.87V10.5Z"/><path class="cls-2" d="M113.44,16.08l4,5.5h-2.38l-3.69-5.28H111v5.28h-2V8.67h2.28a5.72,5.72,0,0,1,3.7,1,3.53,3.53,0,0,1,1.25,2.83,3.7,3.7,0,0,1-.78,2.36A3.5,3.5,0,0,1,113.44,16.08ZM111,14.6h.62c1.84,0,2.77-.7,2.77-2.11s-.9-2-2.7-2H111Z"/><path class="cls-2" d="M127,18.45h-5.52L120,21.58h-2.1l6.39-13.72,6.16,13.72h-2.13Zm-.79-1.83-1.92-4.39-2,4.39Z"/><path class="cls-2" d="M134,8.67V21.58h-1.95V8.67Z"/><path class="cls-2" d="M137.11,21.58V7.8l9.42,9.84v-9h1.94v13.7l-9.41-9.83v9Z"/><path class="cls-2" d="M158.69,10.5h-5.17v3.11h5v1.83h-5v4.31h5.17v1.83h-7.12V8.67h7.12Z"/><path class="cls-2" d="M165.62,16.08l4,5.5h-2.38l-3.69-5.28h-.35v5.28h-1.95V8.67h2.28a5.72,5.72,0,0,1,3.7,1,3.57,3.57,0,0,1,1.25,2.83,3.7,3.7,0,0,1-.78,2.36A3.5,3.5,0,0,1,165.62,16.08ZM163.2,14.6h.62c1.84,0,2.76-.7,2.76-2.11s-.89-2-2.69-2h-.69Z"/></g></g></svg>