<svg xmlns="http://www.w3.org/2000/svg" viewBox="0 0 174.93 30"><defs><style>.cls-1{fill:#fff;}.cls-2{fill:#29ba97;}</style></defs><g id="レイヤー_2" data-name="レイヤー 2"><g id="sub_header"><path class="cls-1" d="M28.2,8.56V21.44a.41.41,0,0,1-.42.41H24a.41.41,0,0,1-.41-.41V8.56A.41.41,0,0,1,24,8.15h3.83A.41.41,0,0,1,28.2,8.56Z"/><rect class="cls-1" x="37.89" width="4.66" height="30" rx="0.42"/><path class="cls-1" d="M56.91,8.56V21.44a.41.41,0,0,1-.42.41H52.66a.41.41,0,0,1-.41-.41V8.56a.41.41,0,0,1,.41-.41h3.83A.41.41,0,0,1,56.91,8.56Z"/><path class="cls-1" d="M11.14,8.43a.41.41,0,0,0-.41.42v.5a6.85,6.85,0,1,0-3.88,12.5,6.81,6.81,0,0,0,3.88-1.21v.8a.41.41,0,0,0,.41.41h2.29a.41.41,0,0,0,.41-.41V8.85a.41.41,0,0,0-.41-.42ZM6.85,18.73A3.73,3.73,0,1,1,10.58,15,3.74,3.74,0,0,1,6.85,18.73Z"/><path class="cls-1" d="M77.74,8.43a.42.42,0,0,0-.41.42v.5a6.85,6.85,0,1,0-3.88,12.5,6.81,6.81,0,0,0,3.88-1.21v.8a.41.41,0,0,0,.41.41H80a.41.41,0,0,0,.41-.41V8.85A.41.41,0,0,0,80,8.43Zm-4.29,10.3A3.73,3.73,0,1,1,77.18,15,3.74,3.74,0,0,1,73.45,18.73Z"/><rect class="cls-1" x="94.35" y="0.18" width="80.58" height="29.63" rx="3.01"/><path class="cls-2" d="M105.1,8.67l3.57,9,3.62-9h2.13l-5.79,13.88L103,8.67Z"/><path class="cls-2" d="M118.32,8.67V21.58h-1.95V8.67Z"/><path class="cls-2" d="M129.06,10.6l-1.58.93a2.78,2.78,0,0,0-.84-1,2,2,0,0,0-1.08-.27,2,2,0,0,0-1.35.46,1.44,1.44,0,0,0-.53,1.14c0,.63.47,1.14,1.4,1.52l1.29.53a5.49,5.49,0,0,1,2.3,1.55,3.52,3.52,0,0,1,.73,2.24,4,4,0,0,1-1.19,2.95,4.09,4.09,0,0,1-3,1.17,4,4,0,0,1-2.78-1,4.61,4.61,0,0,1-1.34-2.8l2-.43a3.38,3.38,0,0,0,.47,1.57,2.21,2.21,0,0,0,3.27.22,2.1,2.1,0,0,0,.6-1.54,2.17,2.17,0,0,0-.1-.69,1.77,1.77,0,0,0-.33-.58,2.8,2.8,0,0,0-.57-.49,5,5,0,0,0-.84-.44l-1.24-.52c-1.77-.75-2.65-1.84-2.65-3.28a3.1,3.1,0,0,1,1.11-2.43,4,4,0,0,1,2.77-1A3.86,3.86,0,0,1,129.06,10.6Z"/><path class="cls-2" d="M134,8.67V21.58h-1.95V8.67Z"/><path class="cls-2" d="M136.84,15.07a6.28,6.28,0,0,1,2-4.68,6.54,6.54,0,0,1,4.78-2,6.44,6.44,0,0,1,4.73,2,6.44,6.44,0,0,1,2,4.74,6.33,6.33,0,0,1-2,4.72,6.81,6.81,0,0,1-9.31.22A6.35,6.35,0,0,1,136.84,15.07Zm2,0a4.67,4.67,0,0,0,1.44,3.52,4.76,4.76,0,0,0,6.73,0,4.76,4.76,0,0,0,1.4-3.46A4.72,4.72,0,0,0,147,11.67a4.8,4.8,0,0,0-6.8,0A4.64,4.64,0,0,0,138.8,15.1Z"/><path class="cls-2" d="M153.12,21.58V7.8l9.42,9.85v-9h2v13.7l-9.42-9.82v9Z"/></g></g></svg>