<svg xmlns="http://www.w3.org/2000/svg" viewBox="0 0 110 91.1"><defs><style>.cls-1{fill:#fff;}</style></defs><g id="レイヤー_2" data-name="レイヤー 2"><g id="layout"><rect class="cls-1" x="32.18" y="21.1" width="6.37" height="18.75" rx="0.57"/><path class="cls-1" d="M9.37,39.84a9.3,9.3,0,0,0,5.3-1.65v1.09a.56.56,0,0,0,.57.56h3.12a.57.57,0,0,0,.57-.56V22.06a.58.58,0,0,0-.57-.57H15.24a.57.57,0,0,0-.57.57v.69a9.37,9.37,0,1,0-5.3,17.09Zm0-14.47a5.1,5.1,0,1,1-5.1,5.1A5.11,5.11,0,0,1,9.37,25.37Z"/><rect class="cls-1" x="71.44" y="21.1" width="6.37" height="18.75" rx="0.57"/><rect class="cls-1" x="51.81" width="6.38" height="40.13" rx="0.57"/><path class="cls-1" d="M67.22,64.4a6.26,6.26,0,0,0-4.64,1.92,6.77,6.77,0,0,0,.07,9.48,6.48,6.48,0,0,0,9.18,0,6.84,6.84,0,0,0,0-9.45A6.22,6.22,0,0,0,67.22,64.4Z"/><path class="cls-1" d="M109.43,21.49h-3.12a.58.58,0,0,0-.57.57v.69a9.37,9.37,0,1,0,0,15.44v1.09a.57.57,0,0,0,.57.56h3.12a.56.56,0,0,0,.57-.56V22.06A.57.57,0,0,0,109.43,21.49Zm-9,14.08a5.1,5.1,0,1,1,5.1-5.1A5.11,5.11,0,0,1,100.44,35.57Z"/><path class="cls-1" d="M107.18,50.64H2.82A2.82,2.82,0,0,0,0,53.46V88.28A2.82,2.82,0,0,0,2.82,91.1H107.18A2.82,2.82,0,0,0,110,88.28V53.46A2.82,2.82,0,0,0,107.18,50.64ZM19.49,81.18l-7.72-19h2.91l4.87,12.22,4.94-12.22H27.4Zm13.23-1.32H30.06V62.23h2.66Zm13.5-1.28a5.57,5.57,0,0,1-4,1.6,5.45,5.45,0,0,1-3.79-1.36A6.31,6.31,0,0,1,36.54,75l2.7-.59a4.51,4.51,0,0,0,.64,2.15,3,3,0,0,0,4.46.3,2.85,2.85,0,0,0,.82-2.11A3.14,3.14,0,0,0,45,73.8a2.41,2.41,0,0,0-.45-.79,3.5,3.5,0,0,0-.78-.67,7.51,7.51,0,0,0-1.14-.6L41,71q-3.62-1.53-3.62-4.47a4.26,4.26,0,0,1,1.52-3.32,5.47,5.47,0,0,1,3.78-1.35,5.28,5.28,0,0,1,4.76,3l-2.16,1.28a3.7,3.7,0,0,0-1.15-1.37,2.63,2.63,0,0,0-1.47-.37,2.7,2.7,0,0,0-1.84.63A1.94,1.94,0,0,0,40,66.58c0,.86.64,1.55,1.91,2.08l1.76.72a7.46,7.46,0,0,1,3.14,2.12,4.76,4.76,0,0,1,1,3.06A5.4,5.4,0,0,1,46.22,78.58Zm8,1.28H51.52V62.23h2.66Zm19.53-2.34A9.31,9.31,0,0,1,61,77.81a9.1,9.1,0,0,1-.26-13.24,9,9,0,0,1,6.53-2.67,9.22,9.22,0,0,1,9.16,9.17A8.68,8.68,0,0,1,73.71,77.52Zm22,3.41L82.89,67.52V79.86H80.23V61L93.09,74.48V62.23h2.66Z"/></g></g></svg>