<svg xmlns="http://www.w3.org/2000/svg" viewBox="0 0 145.77 25"><defs><style>.cls-1{fill:#fff;}.cls-2{fill:#ec3055;}</style></defs><g id="レイヤー_2" data-name="レイヤー 2"><g id="scrl_subheader"><path class="cls-1" d="M23.5,7.13V17.87a.35.35,0,0,1-.35.34H20a.35.35,0,0,1-.35-.34V7.13A.35.35,0,0,1,20,6.79h3.19A.35.35,0,0,1,23.5,7.13Z"/><rect class="cls-1" x="31.58" width="3.89" height="25" rx="0.35"/><path class="cls-1" d="M47.42,7.13V17.87a.34.34,0,0,1-.34.34h-3.2a.34.34,0,0,1-.34-.34V7.13a.34.34,0,0,1,.34-.34h3.2A.34.34,0,0,1,47.42,7.13Z"/><path class="cls-1" d="M9.29,7a.35.35,0,0,0-.35.34v.42A5.71,5.71,0,1,0,5.71,18.21a5.63,5.63,0,0,0,3.23-1v.67a.35.35,0,0,0,.35.34h1.9a.35.35,0,0,0,.35-.34V7.37A.35.35,0,0,0,11.19,7ZM5.71,15.61A3.11,3.11,0,1,1,8.82,12.5,3.12,3.12,0,0,1,5.71,15.61Z"/><path class="cls-1" d="M64.79,7a.35.35,0,0,0-.35.34v.42a5.71,5.71,0,1,0-3.23,10.42,5.63,5.63,0,0,0,3.23-1v.67a.35.35,0,0,0,.35.34h1.9a.35.35,0,0,0,.35-.34V7.37A.35.35,0,0,0,66.69,7Zm-3.58,8.58a3.11,3.11,0,1,1,3.11-3.11A3.12,3.12,0,0,1,61.21,15.61Z"/><rect class="cls-1" x="78.62" y="0.15" width="67.15" height="24.69" rx="3.01"/><path class="cls-2" d="M104.22,8.83l-1.32.78a2.18,2.18,0,0,0-.7-.83,1.62,1.62,0,0,0-.9-.23,1.64,1.64,0,0,0-1.12.39,1.17,1.17,0,0,0-.45.94c0,.53.39.95,1.17,1.27l1.08.44a4.51,4.51,0,0,1,1.91,1.29,2.9,2.9,0,0,1,.61,1.87,3.31,3.31,0,0,1-1,2.46,3.41,3.41,0,0,1-2.48,1,3.28,3.28,0,0,1-2.31-.83A3.81,3.81,0,0,1,97.6,15l1.64-.36A3,3,0,0,0,99.63,16a1.86,1.86,0,0,0,2.73.18,1.9,1.9,0,0,0,.41-1.86,1.44,1.44,0,0,0-.27-.48,2,2,0,0,0-.48-.41,4.37,4.37,0,0,0-.69-.37l-1-.43c-1.47-.62-2.21-1.53-2.21-2.73a2.6,2.6,0,0,1,.93-2,3.33,3.33,0,0,1,2.3-.82A3.22,3.22,0,0,1,104.22,8.83Z"/><path class="cls-2" d="M107.31,18V7.23h2.26a8.28,8.28,0,0,1,2.56.32A4.71,4.71,0,0,1,114,8.62a5.13,5.13,0,0,1,1.66,4,5.23,5.23,0,0,1-3.56,5.08,8.29,8.29,0,0,1-2.53.3Zm1.62-1.53h.74a6.13,6.13,0,0,0,1.81-.23,3.63,3.63,0,0,0,1.31-.77,3.68,3.68,0,0,0,1.2-2.85,3.73,3.73,0,0,0-1.18-2.87,4.46,4.46,0,0,0-3.14-1h-.74Z"/><path class="cls-2" d="M120.15,11.52l4.19-4.29h2.17l-4.87,4.87L126.53,18h-2.17l-3.87-4.79-.34.33V18h-1.62V7.23h1.62Z"/></g></g></svg>