<svg xmlns="http://www.w3.org/2000/svg" viewBox="0 0 110 91.1"><defs><style>.cls-1{fill:#fff;}</style></defs><g id="レイヤー_2" data-name="レイヤー 2"><g id="layout"><path class="cls-1" d="M9.37,39.84a9.3,9.3,0,0,0,5.3-1.65v1.09a.56.56,0,0,0,.57.56h3.12a.57.57,0,0,0,.57-.56V22.06a.58.58,0,0,0-.57-.57H15.24a.57.57,0,0,0-.57.57v.69a9.37,9.37,0,1,0-5.3,17.09Zm0-14.47a5.1,5.1,0,1,1-5.1,5.1A5.11,5.11,0,0,1,9.37,25.37Z"/><rect class="cls-1" x="32.18" y="21.1" width="6.37" height="18.75" rx="0.57"/><rect class="cls-1" x="71.44" y="21.1" width="6.37" height="18.75" rx="0.57"/><rect class="cls-1" x="51.81" width="6.38" height="40.13" rx="0.57"/><path class="cls-1" d="M109.43,21.49h-3.12a.58.58,0,0,0-.57.57v.69a9.37,9.37,0,1,0,0,15.44v1.09a.57.57,0,0,0,.57.56h3.12a.56.56,0,0,0,.57-.56V22.06A.57.57,0,0,0,109.43,21.49Zm-9,14.08a5.1,5.1,0,1,1,5.1-5.1A5.11,5.11,0,0,1,100.44,35.57Z"/><path class="cls-1" d="M107.18,50.64H2.82A2.82,2.82,0,0,0,0,53.46V88.28A2.82,2.82,0,0,0,2.82,91.1H107.18A2.82,2.82,0,0,0,110,88.28V53.46A2.82,2.82,0,0,0,107.18,50.64ZM40.76,78.58a5.56,5.56,0,0,1-4,1.6,5.45,5.45,0,0,1-3.79-1.36A6.25,6.25,0,0,1,31.09,75l2.69-.59a4.51,4.51,0,0,0,.64,2.15,3,3,0,0,0,4.46.3,3.15,3.15,0,0,0,.68-3,2.38,2.38,0,0,0-.44-.79,3.81,3.81,0,0,0-.79-.67,7.51,7.51,0,0,0-1.14-.6L35.49,71q-3.62-1.53-3.62-4.47a4.26,4.26,0,0,1,1.52-3.32,5.47,5.47,0,0,1,3.78-1.35,5.28,5.28,0,0,1,4.76,3l-2.16,1.28a3.7,3.7,0,0,0-1.15-1.37,2.63,2.63,0,0,0-1.47-.37,2.72,2.72,0,0,0-1.84.63,1.94,1.94,0,0,0-.73,1.55c0,.86.64,1.55,1.92,2.08l1.75.72a7.46,7.46,0,0,1,3.14,2.12,4.77,4.77,0,0,1,1,3.06A5.4,5.4,0,0,1,40.76,78.58Zm17-1a8.32,8.32,0,0,1-3,1.75,13.8,13.8,0,0,1-4.14.49H47V62.23h3.7a13.37,13.37,0,0,1,4.2.53,7.63,7.63,0,0,1,3,1.75,9.11,9.11,0,0,1-.11,13.11Zm17.14,2.24L68.58,72l-.55.54v7.3H65.37V62.23H68v7l6.86-7h3.55l-8,8,8,9.65Z"/><path class="cls-1" d="M50.85,64.73h-1.2V77.36h1.2a10,10,0,0,0,3-.38A6.12,6.12,0,0,0,56,75.71a6,6,0,0,0,2-4.66A6.15,6.15,0,0,0,56,66.34,7.36,7.36,0,0,0,50.85,64.73Z"/></g></g></svg>