<svg xmlns="http://www.w3.org/2000/svg" viewBox="0 0 62.79 52"><defs><style>.cls-1{fill:#0c86da;}.cls-2{fill:#fff;}</style></defs><g id="レイヤー_2" data-name="レイヤー 2"><g id="layout"><path class="cls-1" d="M22,12.37V22.42a.32.32,0,0,1-.32.32h-3a.32.32,0,0,1-.33-.32V12.37A.33.33,0,0,1,18.7,12h3A.33.33,0,0,1,22,12.37Z"/><rect class="cls-1" x="29.58" width="3.64" height="22.91" rx="0.32"/><path class="cls-1" d="M44.42,12.37V22.42a.32.32,0,0,1-.32.32h-3a.32.32,0,0,1-.32-.32V12.37A.33.33,0,0,1,41.1,12h3A.33.33,0,0,1,44.42,12.37Z"/><path class="cls-1" d="M8.7,12.27a.32.32,0,0,0-.33.32V13a5.26,5.26,0,0,0-3.59-.92,5.35,5.35,0,0,0,.57,10.67,5.32,5.32,0,0,0,3-.94v.62a.32.32,0,0,0,.33.32h1.78a.32.32,0,0,0,.33-.32V12.59a.32.32,0,0,0-.33-.32Zm-3.35,8a2.91,2.91,0,1,1,2.91-2.91A2.91,2.91,0,0,1,5.35,20.3Z"/><path class="cls-1" d="M60.68,12.27a.32.32,0,0,0-.32.32V13a5.26,5.26,0,0,0-3.59-.92,5.35,5.35,0,1,0,3.59,9.73v.62a.32.32,0,0,0,.32.32h1.79a.32.32,0,0,0,.32-.32V12.59a.32.32,0,0,0-.32-.32Zm-3.35,8a2.91,2.91,0,1,1,2.91-2.91A2.91,2.91,0,0,1,57.33,20.3Z"/><rect class="cls-1" y="28.91" width="62.79" height="23.09" rx="3.01"/><path class="cls-2" d="M5.46,35.52l2.62,6.73L10.82,35l2.62,7.21,2.78-6.73h1.65l-4.5,10.7L10.79,39.1l-2.7,7.13L3.82,35.52Z"/><path class="cls-2" d="M19.42,40.51A4.93,4.93,0,0,1,21,36.86a5.09,5.09,0,0,1,3.72-1.52,5.24,5.24,0,0,1,5.23,5.23,4.93,4.93,0,0,1-1.55,3.68,5.3,5.3,0,0,1-7.25.17A5,5,0,0,1,19.42,40.51Zm1.53,0a3.63,3.63,0,0,0,1.12,2.74,3.58,3.58,0,0,0,2.57,1.08,3.64,3.64,0,0,0,2.68-1.1,3.73,3.73,0,0,0,1.08-2.7,3.65,3.65,0,0,0-1.07-2.69,3.74,3.74,0,0,0-5.3,0A3.63,3.63,0,0,0,21,40.53Z"/><path class="cls-2" d="M36.05,41.3l3.12,4.28H37.31l-2.87-4.11h-.28v4.11H32.64V35.52h1.78a4.44,4.44,0,0,1,2.88.75,2.77,2.77,0,0,1,1,2.21,2.83,2.83,0,0,1-.61,1.83A2.75,2.75,0,0,1,36.05,41.3Zm-1.89-1.16h.48c1.44,0,2.16-.55,2.16-1.64S36.1,37,34.7,37h-.54Z"/><path class="cls-2" d="M43,39.54l3.91-4h2l-4.55,4.56L49,45.58h-2l-3.62-4.47-.31.31v4.16H41.48V35.52H43Z"/><path class="cls-2" d="M57.34,37l-1.23.73a2.08,2.08,0,0,0-.66-.78,1.54,1.54,0,0,0-.84-.21,1.56,1.56,0,0,0-1,.36,1.11,1.11,0,0,0-.41.89c0,.49.36.88,1.09,1.18l1,.41A4.25,4.25,0,0,1,57,40.81a2.73,2.73,0,0,1,.57,1.75,3.07,3.07,0,0,1-.92,2.29,3.21,3.21,0,0,1-2.32.92A3.08,3.08,0,0,1,52.2,45a3.57,3.57,0,0,1-1.05-2.18l1.54-.34a2.63,2.63,0,0,0,.36,1.22,1.58,1.58,0,0,0,1.37.66,1.57,1.57,0,0,0,1.18-.48,1.66,1.66,0,0,0,.47-1.2,1.8,1.8,0,0,0-.08-.54,1.36,1.36,0,0,0-.26-.45,1.88,1.88,0,0,0-.44-.39,4.34,4.34,0,0,0-.65-.34l-1-.4C52.29,40,51.6,39.11,51.6,38a2.42,2.42,0,0,1,.87-1.89,3.11,3.11,0,0,1,2.15-.77A3,3,0,0,1,57.34,37Z"/></g></g></svg>