<svg xmlns="http://www.w3.org/2000/svg" viewBox="0 0 62.79 52"><defs><style>.cls-1{fill:#4f4e58;}.cls-2{fill:#fff;}</style></defs><g id="レイヤー_2" data-name="レイヤー 2"><g id="layout"><path class="cls-1" d="M22,12.37V22.42a.32.32,0,0,1-.32.32h-3a.32.32,0,0,1-.33-.32V12.37A.33.33,0,0,1,18.7,12h3A.33.33,0,0,1,22,12.37Z"/><rect class="cls-1" x="29.58" width="3.64" height="22.91" rx="0.32"/><path class="cls-1" d="M44.42,12.37V22.42a.32.32,0,0,1-.32.32h-3a.32.32,0,0,1-.32-.32V12.37A.33.33,0,0,1,41.1,12h3A.33.33,0,0,1,44.42,12.37Z"/><path class="cls-1" d="M8.7,12.27a.32.32,0,0,0-.33.32V13a5.26,5.26,0,0,0-3.59-.92,5.35,5.35,0,0,0,.57,10.67,5.32,5.32,0,0,0,3-.94v.62a.32.32,0,0,0,.33.32h1.78a.32.32,0,0,0,.33-.32V12.59a.32.32,0,0,0-.33-.32Zm-3.35,8a2.91,2.91,0,1,1,2.91-2.91A2.91,2.91,0,0,1,5.35,20.3Z"/><path class="cls-1" d="M60.68,12.27a.32.32,0,0,0-.32.32V13a5.26,5.26,0,0,0-3.59-.92,5.35,5.35,0,1,0,3.59,9.73v.62a.32.32,0,0,0,.32.32h1.79a.32.32,0,0,0,.32-.32V12.59a.32.32,0,0,0-.32-.32Zm-3.35,8a2.91,2.91,0,1,1,2.91-2.91A2.91,2.91,0,0,1,57.33,20.3Z"/><rect class="cls-1" y="28.91" width="62.79" height="23.09" rx="3.01"/><path class="cls-2" d="M4.28,45.58,6.39,34.77l3.46,7.82,3.57-7.82,1.91,10.81H13.77l-1-6.07-3,6.54L6.93,39.51,5.85,45.58Z"/><path class="cls-2" d="M17,40.51a4.93,4.93,0,0,1,1.56-3.65,5.13,5.13,0,0,1,3.73-1.52,5.24,5.24,0,0,1,5.23,5.23,5,5,0,0,1-1.55,3.68,5.31,5.31,0,0,1-7.26.17A5,5,0,0,1,17,40.51Zm1.54,0a3.63,3.63,0,0,0,1.12,2.74,3.69,3.69,0,0,0,5.24,0,3.7,3.7,0,0,0,1.09-2.7,3.66,3.66,0,0,0-1.08-2.69,3.54,3.54,0,0,0-2.64-1.1,3.58,3.58,0,0,0-2.65,1.1A3.63,3.63,0,0,0,18.49,40.53Z"/><path class="cls-2" d="M29.38,45.58V35.52h2.11a7.72,7.72,0,0,1,2.4.3,4.51,4.51,0,0,1,1.71,1,5.21,5.21,0,0,1-.06,7.49,4.7,4.7,0,0,1-1.71,1,7.68,7.68,0,0,1-2.37.28Zm1.52-1.42h.68a5.48,5.48,0,0,0,1.7-.22,3.68,3.68,0,0,0,1.24-6.07A4.19,4.19,0,0,0,31.58,37H30.9Z"/><path class="cls-2" d="M44.62,37h-4v2.42H44.5V40.8H40.59v3.36h4v1.42H39.07V35.52h5.55Z"/><path class="cls-2" d="M48.13,35.52v8.64h3v1.42H46.61V35.52Z"/><path class="cls-2" d="M58.48,37l-1.23.73a2.08,2.08,0,0,0-.66-.78,1.49,1.49,0,0,0-.84-.21,1.56,1.56,0,0,0-1,.36,1.14,1.14,0,0,0-.41.89c0,.49.36.88,1.09,1.18l1,.41a4.36,4.36,0,0,1,1.8,1.21,2.78,2.78,0,0,1,.56,1.75,3.07,3.07,0,0,1-.92,2.29,3.17,3.17,0,0,1-2.32.92A3.08,3.08,0,0,1,53.34,45a3.57,3.57,0,0,1-1.05-2.18l1.54-.34a2.5,2.5,0,0,0,.37,1.22,1.71,1.71,0,0,0,2.54.18,1.62,1.62,0,0,0,.47-1.2,1.8,1.8,0,0,0-.08-.54,1.33,1.33,0,0,0-.25-.45,2.18,2.18,0,0,0-.45-.39,4.34,4.34,0,0,0-.65-.34l-1-.4C53.43,40,52.74,39.11,52.74,38a2.42,2.42,0,0,1,.87-1.89,3.16,3.16,0,0,1,2.16-.77A3,3,0,0,1,58.48,37Z"/></g></g></svg>