<svg xmlns="http://www.w3.org/2000/svg" viewBox="0 0 62.79 52"><defs><style>.cls-1{fill:#ec3055;}.cls-2{fill:#fff;}</style></defs><g id="レイヤー_2" data-name="レイヤー 2"><g id="layout"><path class="cls-1" d="M22,12.37V22.42a.32.32,0,0,1-.32.32h-3a.32.32,0,0,1-.33-.32V12.37A.33.33,0,0,1,18.7,12h3A.33.33,0,0,1,22,12.37Z"/><rect class="cls-1" x="29.58" width="3.64" height="22.91" rx="0.32"/><path class="cls-1" d="M44.42,12.37V22.42a.32.32,0,0,1-.32.32h-3a.32.32,0,0,1-.32-.32V12.37A.33.33,0,0,1,41.1,12h3A.33.33,0,0,1,44.42,12.37Z"/><path class="cls-1" d="M8.7,12.27a.32.32,0,0,0-.33.32V13a5.26,5.26,0,0,0-3.59-.92,5.35,5.35,0,0,0,.57,10.67,5.32,5.32,0,0,0,3-.94v.62a.32.32,0,0,0,.33.32h1.78a.32.32,0,0,0,.33-.32V12.59a.32.32,0,0,0-.33-.32Zm-3.35,8a2.91,2.91,0,1,1,2.91-2.91A2.91,2.91,0,0,1,5.35,20.3Z"/><path class="cls-1" d="M60.68,12.27a.32.32,0,0,0-.32.32V13a5.26,5.26,0,0,0-3.59-.92,5.35,5.35,0,1,0,3.59,9.73v.62a.32.32,0,0,0,.32.32h1.79a.32.32,0,0,0,.32-.32V12.59a.32.32,0,0,0-.32-.32Zm-3.35,8a2.91,2.91,0,1,1,2.91-2.91A2.91,2.91,0,0,1,57.33,20.3Z"/><rect class="cls-1" y="28.91" width="62.79" height="23.09" rx="3.01"/><path class="cls-2" d="M23.93,37l-1.23.73A2.08,2.08,0,0,0,22,37a1.49,1.49,0,0,0-.84-.21,1.51,1.51,0,0,0-1,.36,1.12,1.12,0,0,0-.42.89c0,.49.36.88,1.09,1.18l1,.41a4.39,4.39,0,0,1,1.79,1.21,2.72,2.72,0,0,1,.56,1.75,3,3,0,0,1-.92,2.29,3.17,3.17,0,0,1-2.31.92A3.09,3.09,0,0,1,18.79,45a3.57,3.57,0,0,1-1.05-2.18l1.54-.34a2.5,2.5,0,0,0,.37,1.22,1.71,1.71,0,0,0,2.54.18,1.62,1.62,0,0,0,.47-1.2,1.53,1.53,0,0,0-.08-.54,1.33,1.33,0,0,0-.25-.45,2.18,2.18,0,0,0-.45-.39,4.34,4.34,0,0,0-.65-.34l-1-.4C18.88,40,18.19,39.11,18.19,38a2.42,2.42,0,0,1,.87-1.89,3.16,3.16,0,0,1,2.16-.77A3,3,0,0,1,23.93,37Z"/><path class="cls-2" d="M26.83,45.58V35.52h2.11a7.6,7.6,0,0,1,2.39.3,4.55,4.55,0,0,1,1.72,1A5.19,5.19,0,0,1,33,44.31a4.58,4.58,0,0,1-1.7,1,7.72,7.72,0,0,1-2.37.28Zm1.51-1.42H29a5.48,5.48,0,0,0,1.7-.22A3.37,3.37,0,0,0,32,43.22a3.43,3.43,0,0,0,1.12-2.67A3.48,3.48,0,0,0,32,37.87,4.23,4.23,0,0,0,29,37h-.69Z"/><path class="cls-2" d="M38.83,39.54l3.92-4h2l-4.54,4.56,4.57,5.5h-2l-3.62-4.47-.32.31v4.16H37.31V35.52h1.52Z"/></g></g></svg>