<svg xmlns="http://www.w3.org/2000/svg" viewBox="0 0 62.79 52"><defs><style>.cls-1{fill:#9263c9;}.cls-2{fill:#fff;}</style></defs><g id="レイヤー_2" data-name="レイヤー 2"><g id="layout"><path class="cls-1" d="M22,12.37V22.42a.32.32,0,0,1-.32.32h-3a.32.32,0,0,1-.33-.32V12.37A.33.33,0,0,1,18.7,12h3A.33.33,0,0,1,22,12.37Z"/><rect class="cls-1" x="29.58" width="3.64" height="22.91" rx="0.32"/><path class="cls-1" d="M44.42,12.37V22.42a.32.32,0,0,1-.32.32h-3a.32.32,0,0,1-.32-.32V12.37A.33.33,0,0,1,41.1,12h3A.33.33,0,0,1,44.42,12.37Z"/><path class="cls-1" d="M8.7,12.27a.32.32,0,0,0-.33.32V13a5.26,5.26,0,0,0-3.59-.92,5.35,5.35,0,0,0,.57,10.67,5.32,5.32,0,0,0,3-.94v.62a.32.32,0,0,0,.33.32h1.78a.32.32,0,0,0,.33-.32V12.59a.32.32,0,0,0-.33-.32Zm-3.35,8a2.91,2.91,0,1,1,2.91-2.91A2.91,2.91,0,0,1,5.35,20.3Z"/><path class="cls-1" d="M60.68,12.27a.32.32,0,0,0-.32.32V13a5.26,5.26,0,0,0-3.59-.92,5.35,5.35,0,1,0,3.59,9.73v.62a.32.32,0,0,0,.32.32h1.79a.32.32,0,0,0,.32-.32V12.59a.32.32,0,0,0-.32-.32Zm-3.35,8a2.91,2.91,0,1,1,2.91-2.91A2.91,2.91,0,0,1,57.33,20.3Z"/><rect class="cls-1" y="28.91" width="62.79" height="23.09" rx="3.01"/><path class="cls-2" d="M7.81,37v8.63H6.29V37H4V35.52h6.14V37Z"/><path class="cls-2" d="M14.88,41.3,18,45.58H16.14l-2.88-4.11H13v4.11H11.47V35.52h1.78a4.44,4.44,0,0,1,2.88.75,2.77,2.77,0,0,1,1,2.21,2.88,2.88,0,0,1-.61,1.83A2.75,2.75,0,0,1,14.88,41.3ZM13,40.14h.48c1.44,0,2.16-.55,2.16-1.64S14.93,37,13.53,37H13Z"/><path class="cls-2" d="M25.41,43.14h-4.3L20,45.58H18.35l5-10.69,4.8,10.69H26.47Zm-.61-1.43-1.5-3.42-1.56,3.42Z"/><path class="cls-2" d="M30.91,35.52V45.58H29.39V35.52Z"/><path class="cls-2" d="M33.32,45.58V34.84l7.34,7.68v-7h1.52V46.2l-7.34-7.66v7Z"/><path class="cls-2" d="M50.14,37h-4v2.42H50V40.8H46.11v3.36h4v1.42H44.59V35.52h5.55Z"/><path class="cls-2" d="M55.54,41.3l3.11,4.28H56.8l-2.88-4.11h-.27v4.11H52.13V35.52h1.78a4.44,4.44,0,0,1,2.88.75,2.77,2.77,0,0,1,1,2.21,2.88,2.88,0,0,1-.61,1.83A2.75,2.75,0,0,1,55.54,41.3Zm-1.89-1.16h.48c1.44,0,2.16-.55,2.16-1.64S55.59,37,54.19,37h-.54Z"/></g></g></svg>