<svg xmlns="http://www.w3.org/2000/svg" viewBox="0 0 62.79 52"><defs><style>.cls-1{fill:#f0e33c;}.cls-2{fill:#fff;}</style></defs><g id="レイヤー_2" data-name="レイヤー 2"><g id="layout"><path class="cls-1" d="M22,12.37V22.42a.32.32,0,0,1-.32.32h-3a.32.32,0,0,1-.33-.32V12.37A.33.33,0,0,1,18.7,12h3A.33.33,0,0,1,22,12.37Z"/><rect class="cls-1" x="29.58" width="3.64" height="22.91" rx="0.32"/><path class="cls-1" d="M44.42,12.37V22.42a.32.32,0,0,1-.32.32h-3a.32.32,0,0,1-.32-.32V12.37A.33.33,0,0,1,41.1,12h3A.33.33,0,0,1,44.42,12.37Z"/><path class="cls-1" d="M8.7,12.27a.32.32,0,0,0-.33.32V13a5.26,5.26,0,0,0-3.59-.92,5.35,5.35,0,0,0,.57,10.67,5.32,5.32,0,0,0,3-.94v.62a.32.32,0,0,0,.33.32h1.78a.32.32,0,0,0,.33-.32V12.59a.32.32,0,0,0-.33-.32Zm-3.35,8a2.91,2.91,0,1,1,2.91-2.91A2.91,2.91,0,0,1,5.35,20.3Z"/><path class="cls-1" d="M60.68,12.27a.32.32,0,0,0-.32.32V13a5.26,5.26,0,0,0-3.59-.92,5.35,5.35,0,1,0,3.59,9.73v.62a.32.32,0,0,0,.32.32h1.79a.32.32,0,0,0,.32-.32V12.59a.32.32,0,0,0-.32-.32Zm-3.35,8a2.91,2.91,0,1,1,2.91-2.91A2.91,2.91,0,0,1,57.33,20.3Z"/><rect class="cls-1" y="28.91" width="62.79" height="23.09" rx="3.01"/><path class="cls-2" d="M20.87,43.14h-4.3l-1.13,2.44H13.81l5-10.69,4.8,10.69H21.93Zm-.62-1.43-1.49-3.42L17.2,41.71Z"/><path class="cls-2" d="M27.16,41.5v4.08H25.65V35.52h1.72a7.61,7.61,0,0,1,1.91.18,2.56,2.56,0,0,1,1.14.67,2.83,2.83,0,0,1,.87,2.13,2.76,2.76,0,0,1-.93,2.19,3.64,3.64,0,0,1-2.49.81Zm0-1.41h.57c1.4,0,2.09-.53,2.09-1.61s-.72-1.55-2.15-1.55h-.51Z"/><path class="cls-2" d="M35.17,41.5v4.08H33.65V35.52h1.72a7.56,7.56,0,0,1,1.91.18,2.54,2.54,0,0,1,1.15.67,2.83,2.83,0,0,1,.87,2.13,2.76,2.76,0,0,1-.93,2.19,3.67,3.67,0,0,1-2.5.81Zm0-1.41h.57c1.39,0,2.09-.53,2.09-1.61s-.72-1.55-2.16-1.55h-.5Z"/><path class="cls-2" d="M47.35,37l-1.23.73a2.08,2.08,0,0,0-.66-.78,1.54,1.54,0,0,0-.84-.21,1.56,1.56,0,0,0-1,.36,1.12,1.12,0,0,0-.42.89c0,.49.37.88,1.1,1.18l1,.41A4.32,4.32,0,0,1,47,40.81a2.73,2.73,0,0,1,.57,1.75,3,3,0,0,1-.93,2.29,3.17,3.17,0,0,1-2.31.92A3.08,3.08,0,0,1,42.21,45a3.57,3.57,0,0,1-1.05-2.18l1.54-.34a2.51,2.51,0,0,0,.36,1.22,1.57,1.57,0,0,0,1.37.66,1.6,1.6,0,0,0,1.18-.48,1.66,1.66,0,0,0,.47-1.2,1.53,1.53,0,0,0-.09-.54,1.18,1.18,0,0,0-.25-.45,1.76,1.76,0,0,0-.45-.39,3.9,3.9,0,0,0-.65-.34l-1-.4A2.8,2.8,0,0,1,41.61,38a2.44,2.44,0,0,1,.86-1.89,3.16,3.16,0,0,1,2.16-.77A3,3,0,0,1,47.35,37Z"/></g></g></svg>