<svg xmlns="http://www.w3.org/2000/svg" viewBox="0 0 110 91.1"><defs><style>.cls-1{fill:#fff;}</style></defs><g id="レイヤー_2" data-name="レイヤー 2"><g id="layout"><rect class="cls-1" x="32.18" y="21.1" width="6.37" height="18.75" rx="0.57"/><path class="cls-1" d="M43.24,64.4A6.52,6.52,0,0,0,36.7,71a6.35,6.35,0,0,0,2,4.8,6.48,6.48,0,0,0,9.18,0,6.84,6.84,0,0,0,0-9.45A6.23,6.23,0,0,0,43.24,64.4Z"/><path class="cls-1" d="M64.47,67.44c0-1.8-1.23-2.71-3.68-2.71h-.94v5.6h.84C63.21,70.33,64.47,69.36,64.47,67.44Z"/><path class="cls-1" d="M109.43,21.49h-3.12a.58.58,0,0,0-.57.57v.69a9.37,9.37,0,1,0,0,15.44v1.09a.57.57,0,0,0,.57.56h3.12a.56.56,0,0,0,.57-.56V22.06A.57.57,0,0,0,109.43,21.49Zm-9,14.08a5.1,5.1,0,1,1,5.1-5.1A5.11,5.11,0,0,1,100.44,35.57Z"/><path class="cls-1" d="M9.37,39.84a9.3,9.3,0,0,0,5.3-1.65v1.09a.56.56,0,0,0,.57.56h3.12a.57.57,0,0,0,.57-.56V22.06a.58.58,0,0,0-.57-.57H15.24a.57.57,0,0,0-.57.57v.69a9.37,9.37,0,1,0-5.3,17.09Zm0-14.47a5.1,5.1,0,1,1-5.1,5.1A5.11,5.11,0,0,1,9.37,25.37Z"/><path class="cls-1" d="M107.18,50.64H2.82A2.82,2.82,0,0,0,0,53.46V88.28A2.82,2.82,0,0,0,2.82,91.1H107.18A2.82,2.82,0,0,0,110,88.28V53.46A2.82,2.82,0,0,0,107.18,50.64ZM23.43,81,18.9,68.49,14.17,81,6.69,62.23H9.57L14.16,74,19,61.38,23.54,74l4.88-11.78H31.3Zm26.29-3.45A9.29,9.29,0,0,1,37,77.81a9.1,9.1,0,0,1-.26-13.24,9,9,0,0,1,6.53-2.67,9.22,9.22,0,0,1,9.16,9.17A8.65,8.65,0,0,1,49.72,77.52Zm15.64,2.34-5-7.22h-.48v7.22H57.19V62.23H60.3q3.5,0,5,1.32a4.81,4.81,0,0,1,1.71,3.85A5,5,0,0,1,66,70.62a4.79,4.79,0,0,1-2.83,1.73l5.45,7.51Zm16.86,0L75.87,72l-.55.54v7.3H72.66V62.23h2.66v7l6.86-7h3.55l-8,8,8,9.65Zm17.07-1.28a5.59,5.59,0,0,1-4.05,1.6,5.44,5.44,0,0,1-3.79-1.36A6.26,6.26,0,0,1,89.61,75l2.69-.59a4.63,4.63,0,0,0,.64,2.15,2.78,2.78,0,0,0,2.4,1.14,2.81,2.81,0,0,0,2.07-.83,2.94,2.94,0,0,0,.82-2.12,2.85,2.85,0,0,0-.15-.94,2.38,2.38,0,0,0-.44-.79,3.5,3.5,0,0,0-.78-.67,7.51,7.51,0,0,0-1.14-.6L94,71q-3.62-1.53-3.61-4.47a4.25,4.25,0,0,1,1.51-3.32,5.51,5.51,0,0,1,3.78-1.35,5.28,5.28,0,0,1,4.76,3l-2.16,1.28a3.61,3.61,0,0,0-1.15-1.37,2.63,2.63,0,0,0-1.47-.37,2.72,2.72,0,0,0-1.84.63,2,2,0,0,0-.73,1.55c0,.86.64,1.56,1.92,2.08l1.76.72a7.52,7.52,0,0,1,3.14,2.12,4.76,4.76,0,0,1,1,3.06A5.4,5.4,0,0,1,99.29,78.58Z"/><rect class="cls-1" x="71.44" y="21.1" width="6.37" height="18.75" rx="0.57"/><rect class="cls-1" x="51.81" width="6.38" height="40.13" rx="0.57"/></g></g></svg>