<svg xmlns="http://www.w3.org/2000/svg" viewBox="0 0 174.93 30"><defs><style>.cls-1{fill:#fff;}.cls-2{fill:#0c86da;}</style></defs><g id="レイヤー_2" data-name="レイヤー 2"><g id="sub_header"><path class="cls-1" d="M28.2,8.56V21.44a.41.41,0,0,1-.42.41H24a.41.41,0,0,1-.41-.41V8.56A.41.41,0,0,1,24,8.15h3.83A.41.41,0,0,1,28.2,8.56Z"/><rect class="cls-1" x="37.89" width="4.66" height="30" rx="0.42"/><path class="cls-1" d="M56.91,8.56V21.44a.41.41,0,0,1-.42.41H52.66a.41.41,0,0,1-.41-.41V8.56a.41.41,0,0,1,.41-.41h3.83A.41.41,0,0,1,56.91,8.56Z"/><path class="cls-1" d="M11.14,8.43a.41.41,0,0,0-.41.42v.5a6.85,6.85,0,1,0-3.88,12.5,6.81,6.81,0,0,0,3.88-1.21v.8a.41.41,0,0,0,.41.41h2.29a.41.41,0,0,0,.41-.41V8.85a.41.41,0,0,0-.41-.42ZM6.85,18.73A3.73,3.73,0,1,1,10.58,15,3.74,3.74,0,0,1,6.85,18.73Z"/><path class="cls-1" d="M77.74,8.43a.42.42,0,0,0-.41.42v.5a6.85,6.85,0,1,0-3.88,12.5,6.81,6.81,0,0,0,3.88-1.21v.8a.41.41,0,0,0,.41.41H80a.41.41,0,0,0,.41-.41V8.85A.41.41,0,0,0,80,8.43Zm-4.29,10.3A3.73,3.73,0,1,1,77.18,15,3.74,3.74,0,0,1,73.45,18.73Z"/><rect class="cls-1" x="94.35" y="0.19" width="80.58" height="29.63" rx="3.01"/><path class="cls-2" d="M101.36,8.68l3.36,8.63,3.51-9.26,3.36,9.26,3.58-8.63h2.11l-5.77,13.73-3.32-9.15-3.46,9.15L99.25,8.68Z"/><path class="cls-2" d="M119.27,15.07a6.35,6.35,0,0,1,2-4.68,6.58,6.58,0,0,1,4.78-2,6.43,6.43,0,0,1,4.73,2,6.44,6.44,0,0,1,2,4.74,6.33,6.33,0,0,1-2,4.72,6.81,6.81,0,0,1-9.31.22A6.35,6.35,0,0,1,119.27,15.07Zm2,0a4.67,4.67,0,0,0,1.44,3.52,4.76,4.76,0,0,0,6.73,0,4.75,4.75,0,0,0,1.4-3.46,4.74,4.74,0,0,0-1.38-3.46,4.83,4.83,0,0,0-6.8,0A4.69,4.69,0,0,0,121.23,15.1Z"/><path class="cls-2" d="M140.61,16.08l4,5.51h-2.38l-3.69-5.29h-.35v5.29h-1.95V8.68h2.28a5.72,5.72,0,0,1,3.7,1,3.53,3.53,0,0,1,1.25,2.82,3.69,3.69,0,0,1-.78,2.36A3.5,3.5,0,0,1,140.61,16.08Zm-2.42-1.47h.62c1.84,0,2.76-.71,2.76-2.12s-.89-2-2.69-2h-.69Z"/><path class="cls-2" d="M149.52,13.83l5-5.15h2.6l-5.84,5.84,5.87,7.07h-2.61l-4.64-5.75-.41.4v5.35h-1.94V8.68h1.94Z"/><path class="cls-2" d="M167.93,10.6l-1.58.94a2.65,2.65,0,0,0-.84-1,2.06,2.06,0,0,0-1.08-.26,2,2,0,0,0-1.35.46,1.44,1.44,0,0,0-.53,1.13c0,.63.47,1.14,1.4,1.52l1.29.53a5.49,5.49,0,0,1,2.3,1.55,3.53,3.53,0,0,1,.73,2.25,4,4,0,0,1-1.19,2.94,4.09,4.09,0,0,1-3,1.17,4,4,0,0,1-2.77-1A4.62,4.62,0,0,1,160,18l2-.43a3.38,3.38,0,0,0,.47,1.57,2,2,0,0,0,1.76.84,2.07,2.07,0,0,0,1.51-.61,2.13,2.13,0,0,0,.6-1.55,2.17,2.17,0,0,0-.1-.69,1.77,1.77,0,0,0-.33-.58,2.8,2.8,0,0,0-.57-.49,5.91,5.91,0,0,0-.84-.44l-1.24-.52c-1.77-.74-2.65-1.84-2.65-3.27a3.12,3.12,0,0,1,1.11-2.44,4,4,0,0,1,2.77-1A3.85,3.85,0,0,1,167.93,10.6Z"/></g></g></svg>